<svg xmlns="http://www.w3.org/2000/svg" width="46.7" height="51.262" viewBox="0 0 46.7 51.262">
  <g id="stop-button" transform="translate(-946.006 -35)">
    <path id="stop-button-right" d="M2.89,13.257a169.339,169.339,0,0,0,45.5-1.9c3.811-.676,3.849-12.011,0-11.331a169.338,169.338,0,0,1-45.5,1.9C-.968,1.567-.958,12.9,2.89,13.257" transform="translate(946.009 86.263) rotate(-90)" fill="#1a1818"/>
    <path id="stop-button-left" d="M2.719,12.834a131.837,131.837,0,0,0,39.887-1.473c3.589-.676,3.623-12.018,0-11.331A131.838,131.838,0,0,1,2.719,1.5c-3.632-.419-3.619,10.916,0,11.331" transform="translate(979 83.311) rotate(-90)" fill="#1a1818"/>
  </g>
</svg>
